{"asset":{"version":"2.0","generator":"Kitchen AI professional microwave catalog builder"},"scene":0,"scenes":[{"nodes":[0],"extras":{"asset":"Kitchen AI Microwave Collection","modelId":"microwave-countertop-24-stainless","displayName":"24 in Stainless Countertop Microwave","units":"meters","upAxis":"Y","origin":"floor-center","nominalDimensionsIn":{"width":24,"height":14,"depth":18},"installation":"countertop","hasExtractor":false,"defaultElevationIn":36}}],"nodes":[{"name":"microwave-countertop-24-stainless","mesh":0}],"meshes":[{"name":"microwave-countertop-24-stainless","primitives":[{"attributes":{"POSITION":0,"COLOR_0":1},"indices":2,"material":0,"mode":4}]}],"materials":[{"name":"Microwave Catalog PBR","pbrMetallicRoughness":{"baseColorFactor":[1,1,1,1],"metallicFactor":0.65,"roughnessFactor":0.32},"doubleSided":false}],"accessors":[{"bufferView":0,"componentType":5126,"count":184,"type":"VEC3","min":[-0.30479999999999996,0.0,-0.26314399999999993],"max":[0.30479999999999996,0.35559999999999997,0.2286]},{"bufferView":1,"componentType":5121,"normalized":true,"count":184,"type":"VEC4"},{"bufferView":2,"componentType":5123,"count":828,"type":"SCALAR","min":[0],"max":[183]}],"bufferViews":[{"buffer":0,"byteOffset":0,"byteLength":2208,"target":34962},{"buffer":0,"byteOffset":2208,"byteLength":736,"target":34962},{"buffer":0,"byteOffset":2944,"byteLength":1656,"target":34963}],"buffers":[{"byteLength":4600,"uri":"data:application/octet-stream;base64,"}]}