{"asset":{"version":"2.0","generator":"Kitchen AI professional microwave catalog builder"},"scene":0,"scenes":[{"nodes":[0],"extras":{"asset":"Kitchen AI Microwave Collection","modelId":"microwave-over-range-30-stainless","displayName":"30 in Over-the-Range Microwave with Extractor","units":"meters","upAxis":"Y","origin":"floor-center","nominalDimensionsIn":{"width":30,"height":16.5,"depth":16},"installation":"over-the-range","hasExtractor":true,"venting":["recirculating","ducted"],"defaultElevationIn":54}}],"nodes":[{"name":"microwave-over-range-30-stainless","mesh":0}],"meshes":[{"name":"microwave-over-range-30-stainless","primitives":[{"attributes":{"POSITION":0,"COLOR_0":1},"indices":2,"material":0,"mode":4}]}],"materials":[{"name":"Microwave Catalog PBR","pbrMetallicRoughness":{"baseColorFactor":[1,1,1,1],"metallicFactor":0.65,"roughnessFactor":0.32},"doubleSided":false}],"accessors":[{"bufferView":0,"componentType":5126,"count":296,"type":"VEC3","min":[-0.381,0.0,-0.23850600000000002],"max":[0.381,0.4191,0.2032]},{"bufferView":1,"componentType":5121,"normalized":true,"count":296,"type":"VEC4"},{"bufferView":2,"componentType":5123,"count":1332,"type":"SCALAR","min":[0],"max":[295]}],"bufferViews":[{"buffer":0,"byteOffset":0,"byteLength":3552,"target":34962},{"buffer":0,"byteOffset":3552,"byteLength":1184,"target":34962},{"buffer":0,"byteOffset":4736,"byteLength":2664,"target":34963}],"buffers":[{"byteLength":7400,"uri":"data:application/octet-stream;base64,"}]}