{"asset":{"version":"2.0","generator":"Kitchen AI embedded real-time catalog builder"},"scene":0,"scenes":[{"nodes":[0],"extras":{"asset":"Kitchen AI Refrigerator Collection","modelId":"refrigerator-french-door-stainless","displayName":"36 in French-Door Stainless Refrigerator","units":"meters","upAxis":"Y","origin":"floor-center","lod":"catalog-preview"}}],"nodes":[{"name":"refrigerator-french-door-stainless","mesh":0}],"meshes":[{"name":"refrigerator-french-door-stainless","primitives":[{"attributes":{"POSITION":0,"COLOR_0":1},"indices":2,"material":0,"mode":4}]}],"materials":[{"name":"Catalog PBR","pbrMetallicRoughness":{"baseColorFactor":[1,1,1,1],"metallicFactor":0.25,"roughnessFactor":0.45},"doubleSided":false}],"accessors":[{"bufferView":0,"componentType":5126,"count":64,"type":"VEC3","min":[-0.4572,0.0,-0.447],"max":[0.4572,1.778,0.381]},{"bufferView":1,"componentType":5121,"normalized":true,"count":64,"type":"VEC4"},{"bufferView":2,"componentType":5123,"count":288,"type":"SCALAR","min":[0],"max":[63]}],"bufferViews":[{"buffer":0,"byteOffset":0,"byteLength":768,"target":34962},{"buffer":0,"byteOffset":768,"byteLength":256,"target":34962},{"buffer":0,"byteOffset":1024,"byteLength":576,"target":34963}],"buffers":[{"byteLength":1600,"uri":"data:application/octet-stream;base64,"}]}
